<svg xmlns="http://www.w3.org/2000/svg" width="578.969" height="635" viewBox="0 0 578.969 635">
  <metadata><?xpacket begin="﻿" id="W5M0MpCehiHzreSzNTczkc9d"?>
<x:xmpmeta xmlns:x="adobe:ns:meta/" x:xmptk="Adobe XMP Core 5.6-c138 79.159824, 2016/09/14-01:09:01        ">
   <rdf:RDF xmlns:rdf="http://www.w3.org/1999/02/22-rdf-syntax-ns#">
      <rdf:Description rdf:about=""/>
   </rdf:RDF>
</x:xmpmeta>
                                                                                                    
                                                                                                    
                                                                                                    
                                                                                                    
                                                                                                    
                                                                                                    
                                                                                                    
                                                                                                    
                                                                                                    
                                                                                                    
                                                                                                    
                                                                                                    
                                                                                                    
                                                                                                    
                                                                                                    
                                                                                                    
                                                                                                    
                                                                                                    
                                                                                                    
                                                                                                    
                           
<?xpacket end="w"?></metadata>
<defs>
    <style>
      .cls-1 {
        fill: #ff4b36;
        fill-rule: evenodd;
      }
    </style>
  </defs>
  <path id="Image_Shape" data-name="Image Shape" class="cls-1" d="M608.276,1908.78a50.3,50.3,0,0,1,31.089,64.03l-132.093,380.3a50.376,50.376,0,0,1-95.2-32.98l132.093-380.3A50.393,50.393,0,0,1,608.276,1908.78Zm188.248,46.57a50.306,50.306,0,0,1,31.089,64.03L695.52,2399.69a50.378,50.378,0,0,1-95.2-32.99l132.093-380.3A50.41,50.41,0,0,1,796.524,1955.35Zm-111.337,13.6c26.289,9.11,41.208,34.77,32.089,61.03L571.42,2449.91a50.378,50.378,0,0,1-95.2-32.99L622.075,1997C631.194,1970.74,658.9,1959.84,685.187,1968.95Zm194.429,54.25a50.3,50.3,0,0,1,31.089,64.03L764.85,2507.15a50.376,50.376,0,0,1-95.2-32.98L815.5,2054.25A50.393,50.393,0,0,1,879.616,2023.2Zm-378.4-23.68a16.763,16.763,0,0,1,10.363,21.34L412.5,2306.09a16.792,16.792,0,0,1-31.734-10.99l99.072-285.23A16.8,16.8,0,0,1,501.211,1999.52Zm412.262,143.71a16.761,16.761,0,0,1,10.363,21.34L824.765,2449.8a16.792,16.792,0,0,1-31.734-10.99L892.1,2153.58A16.8,16.8,0,0,1,913.473,2143.23Zm11.013,55.3a8.381,8.381,0,0,1,5.181,10.67l-77.055,221.85a8.4,8.4,0,0,1-15.867-5.5L913.8,2203.7A8.4,8.4,0,0,1,924.486,2198.53Zm-1.439,52.76a4.189,4.189,0,0,1,2.591,5.33L873.35,2407.16a4.2,4.2,0,0,1-7.933-2.75l52.288-150.53A4.2,4.2,0,0,1,923.047,2251.29Zm22.115-27.85a4.2,4.2,0,0,1,2.591,5.34l-52.288,150.54a4.2,4.2,0,0,1-7.933-2.75l52.287-150.54A4.2,4.2,0,0,1,945.162,2223.44ZM457.207,2036.65a8.377,8.377,0,0,1,5.181,10.67l-77.055,221.85a8.4,8.4,0,0,1-15.867-5.5l77.056-221.85A8.391,8.391,0,0,1,457.207,2036.65Zm-23.33,18.54a4.2,4.2,0,0,1,2.591,5.34L384.18,2211.07a4.2,4.2,0,0,1-7.933-2.75l52.288-150.54A4.2,4.2,0,0,1,433.877,2055.19Z" transform="translate(-369 -1906)"/>
</svg>
